# xmcd
#
# Track frame offsets:
#	150
#	12857
#	27429
#	39547
#	54846
#	67935
#	83683
#	100765
#	116005
#	136384
#	153892
#	171213
#	188928
#	201447
#	216260
#	229788
#
# Disc length: 3231 seconds
#
# Revision: 0
# Processed by: cddbd v1.5.2PL0 Copyright (c) Steve Scherf et al.
# Submitted via: FairStars CD Ripper 1.90
#
DISCID=d20c9d10
DTITLE=Various Artist - Campground "C" with Byron James
DYEAR=2006
DGENRE=Country
TTITLE0=Adam Woodall - Trying Hard To Be A Kid Again
TTITLE1=Borderline - Back Again
TTITLE2=The Brent Lee Band - Right Here In My Heart
TTITLE3=The Cruzeros - Load Me Up
TTITLE4=Dallas Rd - Stronger
TTITLE5=Dave Mercer - Seven Ways to Sunday
TTITLE6=Fera - Enchanted
TTITLE7=The Higgins - Any Other Time
TTITLE8=Jordon Doell - If I Could
TTITLE9=Kelly Brock - Rebel Kind
TTITLE10=Ken McCoy - Living On Mexican Time
TTITLE11=Lynne Taylor Donovan - Talk to Me
TTITLE12=Natalye Vivian - Holding Out for a Hero
TTITLE13=Nikki Werner - Gone
TTITLE14=Pat Chessell - Rainy Tuesday Morning
TTITLE15=Rob Hess - What The
EXTD=
EXTT0=
EXTT1=
EXTT2=
EXTT3=
EXTT4=
EXTT5=
EXTT6=
EXTT7=
EXTT8=
EXTT9=
EXTT10=
EXTT11=
EXTT12=
EXTT13=
EXTT14=
EXTT15=
PLAYORDER=
